<?xml version="1.0" encoding="iso-8859-1"?>
<!-- Uploaded to: SVG Repo, www.svgrepo.com, Generator: SVG Repo Mixer Tools -->
<!DOCTYPE svg PUBLIC "-//W3C//DTD SVG 1.1//EN" "http://www.w3.org/Graphics/SVG/1.1/DTD/svg11.dtd">
<svg fill="#000000" version="1.1" id="Capa_1" xmlns="http://www.w3.org/2000/svg" xmlns:xlink="http://www.w3.org/1999/xlink" 
	 width="800px" height="800px" viewBox="0 0 33.34 33.34" xml:space="preserve"
	>
<g>
	<g>
		<path d="M12.251,18.962c0,0.354-0.289,0.646-0.645,0.646h-0.645c-0.354,0-0.646-0.29-0.646-0.646v-0.558l-9.994-2.006v6.755
			c0,1.419,1.161,2.58,2.58,2.58h16.765c1.418,0,2.579-1.16,2.579-2.58v-6.755l-9.995,2.006L12.251,18.962L12.251,18.962z"/>
		<path d="M19.667,10.787h-4.059c0.002-0.039,0.011-0.076,0.011-0.118V9.379c0-0.979-0.795-1.773-1.773-1.773H8.723
			c-0.979,0-1.773,0.795-1.773,1.773v1.289c0,0.042,0.009,0.079,0.012,0.118H2.903C1.302,10.787,0,12.088,0,13.689v2.039
			L10.317,17.8v-0.772c0-0.354,0.291-0.644,0.646-0.644h0.645c0.355,0,0.645,0.29,0.645,0.644V17.8l10.315-2.071v-2.039
			C22.568,12.087,21.27,10.787,19.667,10.787z M14.653,10.668c0,0.042-0.019,0.079-0.025,0.118H7.94
			c-0.006-0.039-0.023-0.076-0.023-0.118V9.379c0-0.444,0.36-0.806,0.807-0.806h5.123c0.446,0,0.808,0.361,0.808,0.806v1.289H14.653
			z"/>
		<rect x="23.453" y="12.703" width="5.279" height="0.837"/>
		<rect x="23.453" y="14.937" width="7.583" height="0.838"/>
		<rect x="23.453" y="17.169" width="9.887" height="0.837"/>
	</g>
</g>
</svg>